<svg width="32" height="32" viewBox="0 0 32 32" fill="none" xmlns="http://www.w3.org/2000/svg">
<rect width="32" height="32" fill="#FFF7F2"/>
<path d="M11 13.1894C11.0373 13.5814 11.0725 13.9736 11.1077 14.3658C11.0841 14.1013 11.0606 13.8369 11.0361 13.5725C11.0242 13.4442 11.0122 13.3176 11 13.1894ZM18.6937 6.10503C18.6853 6.10486 18.677 6.10466 18.6686 6.10449L18.6743 6.10463L18.6937 6.10503ZM14.5427 14.3999C13.9092 13.6152 13.6336 12.6911 13.7991 11.7315C13.9533 10.8365 14.4947 10.1205 15.3156 9.59542C15.6634 9.37294 16.0315 9.18106 16.3993 8.98947C16.8768 8.74057 17.3535 8.49216 17.7833 8.17776C17.8254 8.14699 17.8737 8.108 17.9262 8.06559C18.1251 7.90524 18.3846 7.696 18.5925 7.69727C18.6045 7.69734 18.6161 7.69962 18.6277 7.70082C18.6462 7.71577 18.6611 7.73166 18.6734 7.74841C18.6946 7.77718 18.7083 7.80848 18.7187 7.84206C18.7256 7.86387 18.7309 7.88661 18.7363 7.91023C18.7733 8.07629 18.7867 8.24954 18.8001 8.42179C18.8076 8.51477 18.8148 8.60748 18.8255 8.69859C18.835 8.77906 18.8455 8.8597 18.8562 8.94044L18.8804 9.11918C18.9245 9.44672 18.9687 9.77543 18.9872 10.1029C19.0564 11.3268 18.861 12.5233 17.9092 13.4628C17.315 14.0493 16.5523 14.3994 15.7081 14.589C15.5441 14.6258 15.3717 14.6751 15.2019 14.6815L15.1685 14.6824C15.133 14.683 15.0975 14.6824 15.062 14.6806L15.028 14.789L15.0092 14.8493C14.8917 15.2317 14.7014 15.8508 14.4735 16.0314C14.4523 16.0482 14.4282 16.0636 14.4022 16.0758C14.3781 16.0872 14.3524 16.0958 14.3262 16.1004C14.311 16.1031 14.2952 16.1045 14.2793 16.1042C14.265 16.1039 14.2504 16.1023 14.2361 16.099C14.1565 16.0809 14.1159 16.0441 14.0783 15.9809C13.9253 15.7212 14.3211 14.8747 14.4953 14.5027L14.5427 14.3999Z" fill="#F9F5EA"/>
<path d="M15.0526 2.10649C15.2017 2.11344 15.3516 2.14203 15.4637 2.22661C15.775 2.4615 15.8464 3.57035 15.8856 4.17875C15.8927 4.28647 15.8982 4.37857 15.9042 4.44731C16.2725 4.38538 16.6864 4.39222 17.0673 4.39848L17.1776 4.40043C17.4067 4.67383 17.4192 4.89866 17.4374 5.21782L17.4423 5.29692C17.712 5.35955 18.1891 5.34928 18.6932 5.33891C19.4443 5.32349 20.255 5.30732 20.5311 5.52739C20.6765 5.64361 20.7734 5.83239 20.8124 6.00883C20.8932 6.37508 20.9318 6.76702 20.9696 7.14848C20.9801 7.25303 20.9907 7.35679 21.0018 7.45903C21.0761 8.1643 21.1552 8.86908 21.2391 9.57328L22.1786 17.3272L22.2274 17.3223C22.4167 17.3033 22.5799 17.2867 22.7479 17.4004C22.8091 17.4419 22.8567 17.4944 22.8934 17.5528C22.9451 17.6352 22.9754 17.7309 22.9882 17.8301C23.0234 18.1076 22.9844 18.4575 22.7987 18.6807C22.7347 18.7572 22.659 18.8142 22.5614 18.8438C22.2392 18.941 21.8189 18.9024 21.4803 18.918C21.2667 18.9276 21.0522 18.9409 20.8387 18.958C20.7088 18.9685 20.5787 18.9799 20.4491 18.9932C20.764 20.1615 21.0315 21.3444 21.2987 22.5264C21.4509 23.1992 21.6028 23.8726 21.7635 24.542C21.9644 25.3464 22.1593 26.1521 22.3485 26.959C22.4598 27.4171 22.6009 27.8853 22.6698 28.3506C22.69 28.4872 22.6961 28.5762 22.6171 28.6983C22.5203 28.8478 22.3449 28.9383 22.1708 28.9727C21.9054 29.0251 21.7056 28.9528 21.4911 28.8086C21.3542 28.7167 21.2753 28.6277 21.2167 28.4756C21.0415 28.0208 21.0011 27.4951 20.8944 27.0215C20.594 25.7402 20.3125 24.4545 20.0516 23.1651C18.7824 23.2654 17.5119 23.3481 16.2401 23.4122C16.0199 23.4244 15.799 23.4377 15.578 23.4512C14.8955 23.493 14.2105 23.5354 13.5292 23.5401C13.5286 23.9966 13.4621 24.4583 13.4218 24.9131C13.403 25.1241 13.3881 25.3356 13.3739 25.5469C13.358 25.7851 13.3417 26.0232 13.3192 26.2608C13.3004 26.4586 13.2748 26.6563 13.2489 26.8536C13.2287 27.0061 13.209 27.1588 13.1923 27.3116C13.1274 27.9035 13.1201 28.5026 13.0301 29.0928C13.0145 29.1952 12.9924 29.306 12.9413 29.3975C12.8502 29.5609 12.7006 29.6305 12.5262 29.6856C12.4061 29.6899 12.2832 29.6849 12.1639 29.6641C12.115 29.6555 12.0659 29.6444 12.0184 29.6299C11.7924 29.5609 11.6797 29.4478 11.5682 29.25C11.5569 28.7046 11.6169 28.1672 11.6766 27.628C11.6963 27.4496 11.7159 27.271 11.7333 27.0918C11.7742 26.6224 11.8167 26.1528 11.8602 25.6836C11.9183 25.0563 11.9783 24.4288 12.0409 23.8018L12.3143 20.6944C12.334 20.4703 12.3472 20.2446 12.3632 20.0196C12.3794 19.7941 12.3989 19.5687 12.4325 19.3457C12.1636 19.364 11.8941 19.3672 11.6249 19.3702C11.3742 19.3729 11.1233 19.3756 10.8729 19.3907C10.844 19.4088 10.8214 19.4341 10.8026 19.4629C10.7687 19.5153 10.7476 19.5802 10.7274 19.6368C10.5545 20.1257 10.4227 20.6395 10.2919 21.1485C10.2381 21.3574 10.1848 21.5662 10.1288 21.7715L9.08581 25.5909C9.05966 25.6884 9.02625 25.8243 8.98816 25.9805C8.84645 26.5633 8.63526 27.433 8.44519 27.6797C8.33845 27.8185 8.14718 27.8867 7.97741 27.9122C7.70824 27.9524 7.31487 27.9166 7.09753 27.7403C7.06542 27.7143 7.04356 27.6888 7.0282 27.6622C7.00375 27.6195 6.99746 27.5726 7.00085 27.5098C7.03187 26.9422 7.34318 25.9288 7.58874 25.1309C7.66383 24.8871 7.7331 24.6634 7.78601 24.4786L9.06238 19.8877C9.34007 18.9052 9.60884 17.92 9.86804 16.9327C9.90332 16.8013 9.94438 16.6654 9.9862 16.5284C10.0809 16.219 10.1783 15.9009 10.2147 15.5977C10.2824 15.0371 10.0562 13.8226 9.98327 13.2051L9.40613 7.9561C9.3771 7.68115 9.34261 7.40459 9.30847 7.12895C9.28345 6.92535 9.25826 6.72181 9.23523 6.5186C9.2247 6.42673 9.21133 6.33349 9.19909 6.24028C9.18288 6.11585 9.16886 5.99059 9.16687 5.86723C9.16603 5.82236 9.16884 5.78248 9.17566 5.74614C9.19614 5.63877 9.25148 5.5608 9.34851 5.46879C9.475 5.34909 9.62314 5.24543 9.79675 5.2061C10.0967 5.13823 10.441 5.16002 10.7694 5.18071C10.8896 5.18831 11.0079 5.19541 11.121 5.19828C11.7657 5.21461 12.4134 5.23469 13.0585 5.23442C13.0559 5.19957 13.0517 5.16056 13.0477 5.11918C13.0255 4.89752 12.9962 4.60288 13.1415 4.45805C13.3227 4.27794 13.9245 4.3645 14.1776 4.35453C14.185 4.1129 14.1589 3.83441 14.1327 3.56157C14.102 3.24162 14.0711 2.9286 14.0975 2.69047C14.1095 2.58484 14.142 2.48644 14.2059 2.39946C14.3465 2.20856 14.5673 2.1427 14.7958 2.11039C14.8761 2.1056 14.9644 2.1024 15.0526 2.10649ZM19.1073 19.0567C18.8484 19.0642 18.5872 19.0649 18.329 19.083L15.3798 19.1973C14.9087 19.2174 14.4295 19.2741 13.9589 19.2579C13.8979 20.3112 13.7907 21.3824 13.6639 22.4307C14.1254 22.4011 14.5901 22.3688 15.0526 22.3643C16.6274 22.309 18.1998 22.1671 19.7753 22.1065C19.5567 21.0912 19.3557 20.0653 19.1073 19.0567ZM10.9725 12.7745C11.0035 13.1032 11.0323 13.4326 11.0604 13.7618C11.0837 14.0351 11.1063 14.3086 11.1288 14.5821C11.2176 15.6594 11.3061 16.7372 11.4364 17.8106C12.2242 17.7947 13.0122 17.7451 13.8007 17.6954C14.1139 17.6756 14.4278 17.6554 14.7411 17.6377C15.1012 17.6175 15.4618 17.6004 15.8221 17.5889C17.0981 17.5529 18.3731 17.4993 19.6473 17.4278C19.8004 17.4196 19.9567 17.4179 20.1132 17.417C20.2332 17.4164 20.3537 17.4161 20.4735 17.4122C20.6123 17.4075 20.7508 17.3987 20.8856 17.3799L21.3778 17.3448C21.3422 16.7677 21.2813 16.1926 21.2128 15.6182C21.1806 15.3501 21.1467 15.0814 21.1132 14.8135C21.0691 14.4639 21.0256 14.1144 20.9852 13.7647L20.0946 6.10161C19.8495 6.0845 19.6044 6.07307 19.3593 6.0645C19.0907 6.05509 18.8215 6.04889 18.5526 6.04301L18.3466 6.03813L18.0428 6.03129C17.1386 5.99878 16.2338 5.97527 15.329 5.96196C14.822 5.95936 14.3155 5.96131 13.8094 5.96293C12.6331 5.96667 11.458 5.96988 10.2792 5.92094L10.9725 12.7745ZM18.3026 7.6895C18.32 7.70482 18.334 7.72116 18.3456 7.73832C18.3658 7.76804 18.3796 7.80032 18.3895 7.835C18.396 7.85745 18.401 7.88102 18.4061 7.90532C18.4414 8.077 18.4539 8.25653 18.4667 8.43461C18.4738 8.53068 18.4809 8.62661 18.4911 8.72075C18.5002 8.80384 18.5102 8.88738 18.5204 8.97075L18.5438 9.15629C18.5859 9.49477 18.6277 9.83449 18.6454 10.1729C18.7114 11.4386 18.525 12.6769 17.6171 13.6485C17.0503 14.2548 16.3226 14.6165 15.5175 14.8125C15.361 14.8507 15.196 14.9016 15.0341 14.9082L15.0028 14.9092C14.9691 14.9098 14.935 14.9092 14.9012 14.9073L14.868 15.0196L14.8505 15.0821C14.7383 15.4776 14.5571 16.118 14.3397 16.3047C14.3195 16.3221 14.2961 16.338 14.2714 16.3506C14.2484 16.3623 14.224 16.3713 14.1991 16.376C14.1846 16.3788 14.1693 16.3802 14.1542 16.3799C14.1406 16.3796 14.1268 16.3774 14.1132 16.3741C14.0372 16.3554 13.9986 16.3174 13.9628 16.252C13.8168 15.9835 14.194 15.1084 14.3602 14.7237L14.4051 14.6172C13.8008 13.8057 13.5382 12.8498 13.6962 11.8575C13.8433 10.932 14.3595 10.1915 15.1425 9.64848C15.4742 9.41839 15.8258 9.21965 16.1766 9.02153C16.6321 8.76417 17.087 8.50773 17.4969 8.18266C17.537 8.15089 17.5827 8.11022 17.6327 8.06645C17.8224 7.90072 18.0702 7.68453 18.2684 7.68559C18.2798 7.68566 18.2915 7.68825 18.3026 7.6895Z" fill="#1C1B1A"/>
<path d="M13.904 14.4825C13.1799 13.7358 12.8647 12.8565 13.0538 11.9433C13.2302 11.0917 13.8492 10.4104 14.7876 9.91072C15.702 9.42392 16.7394 9.09116 17.609 8.5617C17.839 8.42168 18.2339 8.10295 18.5342 8.1045C18.5478 8.10455 18.5611 8.10673 18.5746 8.10787C18.6549 8.16243 18.678 8.22986 18.6987 8.30714C18.7639 8.55046 18.7651 8.81004 18.8007 9.05732C18.8647 9.50071 18.955 9.9484 18.9853 10.3936C19.0647 11.5583 18.841 12.6968 17.7529 13.5908C17.0736 14.1488 16.2015 14.482 15.2364 14.6624C15.0488 14.6975 14.8516 14.7444 14.6577 14.7505C14.645 14.7509 14.6323 14.7512 14.6196 14.7513C14.579 14.7519 14.5382 14.7513 14.4977 14.7496C14.3748 15.0655 14.1292 15.8344 13.8249 16.035C13.753 16.0823 13.6513 16.1178 13.5535 16.0993C13.4626 16.0821 13.416 16.0471 13.3732 15.9869C13.198 15.7397 13.6511 14.9342 13.8499 14.5804C13.8714 14.5421 13.8895 14.5089 13.904 14.4825Z" fill="#7A945C"/>
<path d="M13.5571 14.5024C13.7446 14.1131 13.99 13.6202 14.2116 13.2476C14.5859 12.6181 16.0966 10.3415 16.8511 10.1184C16.8945 10.1056 16.8963 10.1072 16.9359 10.1044C16.973 10.1254 16.9948 10.1258 16.999 10.1645C17.0137 10.3014 16.8542 10.5404 16.77 10.6638C16.5581 10.974 16.2512 11.2474 16.0204 11.5498C15.7882 11.8538 15.5865 12.1787 15.3746 12.4913C15.0092 13.0306 14.6125 13.5912 14.345 14.163C14.2546 14.3563 14.2003 14.5667 14.137 14.7662C14.017 15.0782 13.7771 15.8377 13.4798 16.0358C13.4096 16.0825 13.3102 16.1176 13.2147 16.0993C13.1259 16.0823 13.0804 16.0477 13.0386 15.9883C12.8674 15.7442 13.3102 14.9485 13.5044 14.599C13.5254 14.5612 13.543 14.5285 13.5571 14.5024Z" fill="#1C1B1A"/>
</svg>
